<?xml version="1.0" standalone="no"?>
<!DOCTYPE svg PUBLIC "-//W3C//DTD SVG 20010904//EN"
 "http://www.w3.org/TR/2001/REC-SVG-20010904/DTD/svg10.dtd">
<svg version="1.0" xmlns="http://www.w3.org/2000/svg"
 width="512.000000pt" height="512.000000pt" viewBox="0 0 512.000000 512.000000"
 preserveAspectRatio="xMidYMid meet">
<metadata>
Created by potrace 1.14, written by Peter Selinger 2001-2017
</metadata>
<g transform="translate(0.000000,512.000000) scale(0.100000,-0.100000)"
fill="#000000" stroke="none">
<path d="M2515 4279 c-166 -29 -278 -77 -412 -178 -70 -52 -145 -126 -193
-188 -100 -129 -177 -317 -198 -483 -4 -36 -8 -459 -9 -940 -2 -947 -1 -953
53 -1110 118 -343 424 -606 764 -657 61 -10 263 -9 325 0 140 22 300 95 429
197 55 43 166 164 208 225 134 201 175 355 177 663 l2 172 -303 -2 -303 -3 -1
-155 c-1 -85 -7 -175 -14 -200 -32 -121 -138 -248 -236 -282 -139 -49 -295
-12 -386 92 -48 54 -66 86 -89 165 -18 56 -19 116 -19 910 0 945 -2 914 67
1023 59 93 118 136 215 156 181 37 339 -42 419 -209 37 -77 42 -110 43 -285
l1 -145 300 0 300 0 -1 155 c0 85 -4 184 -7 220 -21 213 -130 436 -292 596
-226 224 -526 318 -840 263z"/>
</g>
</svg>
