<svg width="514" height="475" viewBox="0 0 514 475" fill="none" xmlns="http://www.w3.org/2000/svg">
<path d="M25.7 359.457C11.5063 359.457 0 347.962 0 333.782C0 319.602 11.5063 308.107 25.7 308.107H295.55C321.25 308.107 346.95 359.457 334.1 359.457H25.7ZM385.5 359.457C371.306 359.457 359.8 347.962 359.8 333.782C359.8 319.602 371.306 308.107 385.5 308.107H488.3C502.494 308.107 514 319.602 514 333.782C514 347.962 502.494 359.457 488.3 359.457H385.5ZM273.278 12.8685C280.36 0.579776 296.073 -3.64652 308.373 3.42881C320.674 10.5041 324.904 26.2018 317.822 38.4905L140.31 346.504C133.228 358.792 117.515 363.019 105.214 355.943C92.9138 348.868 88.6835 333.17 95.7656 320.882L273.278 12.8685ZM51.4 397.97C64.25 372.295 141.35 346.62 115.65 390.803C111.081 398.658 97.0882 422.434 73.6722 462.131C66.59 474.42 50.8772 478.647 38.5766 471.571C26.276 464.496 22.0456 448.798 29.1278 436.509L51.4 397.97ZM183.328 38.4905C176.246 26.2018 180.476 10.5041 192.777 3.42881C205.077 -3.64652 220.79 0.579776 227.872 12.8685L272.689 90.6328C279.771 102.921 275.541 118.619 263.24 125.694C250.939 132.77 235.227 128.544 228.144 116.255L183.328 38.4905ZM282.7 218.244C259.618 179.731 282.7 102.705 301.11 141.113L472.022 436.509C479.104 448.798 474.874 464.496 462.573 471.571C450.273 478.647 434.56 474.42 427.478 462.131L282.7 218.244Z" fill="#000"/>
</svg>
