<svg width="20" height="16" viewBox="0 0 20 16" fill="none" xmlns="http://www.w3.org/2000/svg">
<path d="M11.5 14C11.5 14.197 11.4612 14.3921 11.3858 14.5741C11.3105 14.7561 11.2 14.9214 11.0607 15.0607C10.9214 15.2 10.756 15.3105 10.574 15.3859C10.392 15.4612 10.197 15.5 10 15.5C9.80302 15.5 9.60797 15.4612 9.42598 15.3859C9.24399 15.3105 9.07863 15.2 8.93934 15.0607C8.80005 14.9214 8.68956 14.7561 8.61417 14.5741C8.53879 14.3921 8.5 14.197 8.5 14C8.5 13.6022 8.65805 13.2206 8.93935 12.9393C9.22066 12.658 9.60219 12.5 10 12.5C10.3978 12.5 10.7794 12.658 11.0607 12.9393C11.342 13.2206 11.5 13.6022 11.5 14Z" fill="black"/>
<path d="M10.0043 0.000115342C6.37926 0.000115342 2.87701 1.25892 0.17532 3.53443C-0.0332718 3.71244 -0.0594138 4.02526 0.116712 4.23547C0.294312 4.44448 0.607271 4.47166 0.818078 4.29591C3.33267 2.17798 6.61034 1.00371 10.0043 1.00371C11.2901 1.00371 12.5572 1.17159 13.773 1.49587L11.2586 4.0109C10.8442 3.96442 10.4256 3.94066 10.0043 3.94066C7.49866 3.94066 5.07228 4.78173 3.16641 6.31705C2.95295 6.49053 2.91981 6.8038 3.09219 7.0181C3.26582 7.23127 3.57917 7.2645 3.79356 7.09215C5.51529 5.70514 7.72268 4.93641 10.0043 4.93641C10.1123 4.93641 10.2192 4.94024 10.3267 4.94402L6.17902 9.09137C5.95122 9.25163 5.89706 9.5666 6.05984 9.79242C6.22232 10.0177 6.53721 10.068 6.76122 9.90361C7.6854 9.23758 8.83015 8.87845 10.0043 8.87845C11.1786 8.87845 12.3135 9.23751 13.2377 9.90361C13.4617 10.068 13.7766 10.0169 13.9391 9.79242C14.1019 9.56641 14.0497 9.25144 13.8219 9.09137C12.722 8.29869 11.3852 7.87486 10.0044 7.87486C9.55137 7.87486 9.10186 7.92024 8.66413 8.00981L11.6103 5.06525C13.3029 5.33737 14.8928 6.0349 16.2054 7.09204C16.4197 7.26438 16.7331 7.23115 16.9067 7.01799C17.0849 6.80293 17.0524 6.48386 16.8344 6.30921C15.5636 5.28568 14.0629 4.57474 12.4621 4.21402L14.8475 1.82979C16.4317 2.38829 17.9037 3.22038 19.1808 4.29603C19.3919 4.47291 19.7064 4.44562 19.8841 4.23547C20.0598 4.02496 20.0328 3.71207 19.8236 3.53454C18.5726 2.48085 17.1522 1.64449 15.6271 1.05065L15.8224 0.855261C16.0177 0.65986 16.0177 0.343658 15.8224 0.148445C15.7285 0.0558468 15.6033 -0.0028053 15.4825 0.00173013C15.3617 0.00550966 15.2009 0.069831 15.1211 0.148445L14.5819 0.687323C13.116 0.235367 11.5728 0.000115342 10.0043 0.000115342ZM9.95157 12.0011C8.876 12.0276 8.0018 12.9194 8.0018 14.0006C8.0018 15.099 8.90535 16.0001 10.0043 16.0001C11.1033 16.0001 12.0049 15.099 12.0049 14.0006C12.0049 12.9022 11.099 12 10 12C9.98302 12 9.96865 12.0007 9.95157 12.0011ZM9.95157 12.997C9.96895 12.9961 9.98256 13 10 13C10.5584 13 11.0007 13.4425 11.0007 14.0006C11.0007 14.5587 10.5627 14.9964 10.0043 14.9964C9.44595 14.9964 8.99818 14.5587 8.99818 14.0006C8.99818 13.4599 9.41778 13.0236 9.95157 12.997Z" fill="white"/>
</svg>
