<svg width="512" height="512" viewBox="0 0 512 512" fill="none" xmlns="http://www.w3.org/2000/svg">
<path d="M329.845 110.052V111.145C329.845 143.56 355.413 170.397 386.84 170.975C420.102 171.431 446.016 144.878 446.016 112.894V110.033C478.52 76.324 447.149 8.93396 390.699 6.79396C329.993 4.52296 296.621 75.479 329.845 110.052ZM435.63 112.894C435.63 139.946 413.256 161.23 387.033 160.589C361.226 160.117 340.231 137.936 340.231 111.145V88.984C340.231 78.345 348.882 69.693 359.522 69.693H416.335C426.974 69.693 435.631 78.344 435.631 88.984V112.894H435.63ZM390.304 17.17C432.738 18.782 457.452 63.445 446.016 91.385V88.984C446.016 72.619 432.699 59.307 416.334 59.307H359.521C343.156 59.307 329.843 72.619 329.843 88.984V91.052C317.801 60.953 345.625 15.474 390.304 17.17Z" fill="white"/>
<path d="M376.296 336.185C373.588 335.252 370.637 336.763 369.739 339.486L351.949 393.307L334.154 339.486C333.256 336.763 330.3 335.252 327.597 336.185C324.874 337.083 323.393 340.019 324.296 342.742L347.02 411.482C347.72 413.612 349.708 415.047 351.949 415.047C354.19 415.047 356.178 413.612 356.878 411.482L379.597 342.742C380.5 340.019 379.02 337.082 376.296 336.185Z" fill="white"/>
<path d="M418.353 346.307H446.615C449.485 346.307 451.808 343.984 451.808 341.114C451.808 338.244 449.485 335.921 446.615 335.921H418.353C406.015 335.921 395.979 345.962 395.979 358.3C395.979 370.638 406.015 380.674 418.353 380.674H429.429C436.042 380.674 441.422 386.055 441.422 392.667C441.422 399.279 436.041 404.66 429.429 404.66H401.172C398.302 404.66 395.979 406.983 395.979 409.853C395.979 412.723 398.302 415.046 401.172 415.046H429.429C441.767 415.046 451.808 405.005 451.808 392.667C451.808 380.329 441.767 370.288 429.429 370.288H418.353C411.74 370.288 406.365 364.913 406.365 358.3C406.365 351.687 411.74 346.307 418.353 346.307Z" fill="white"/>
<path d="M83.1754 172.506C84.7314 177.241 91.4744 177.251 93.0334 172.506L115.752 103.771C116.655 101.048 115.174 98.1119 112.451 97.2139C109.718 96.2859 106.792 97.7919 105.894 100.515L88.1044 154.331L70.3104 100.515C69.4124 97.7919 66.4614 96.2859 63.7534 97.2139C61.0304 98.1119 59.5494 101.048 60.4524 103.771L83.1754 172.506Z" fill="white"/>
<path d="M165.583 165.686H137.326C134.456 165.686 132.133 168.009 132.133 170.879C132.133 173.749 134.456 176.072 137.326 176.072H165.583C177.921 176.072 187.962 166.036 187.962 153.698C187.962 141.36 177.921 131.319 165.583 131.319H154.513C147.9 131.319 142.52 125.944 142.52 119.331C142.52 112.718 147.901 107.338 154.513 107.338H182.77C185.64 107.338 187.963 105.015 187.963 102.145C187.963 99.2749 185.64 96.9519 182.77 96.9519H154.513C142.175 96.9519 132.134 106.993 132.134 119.331C132.134 131.669 142.175 141.705 154.513 141.705H165.583C172.196 141.705 177.576 147.086 177.576 153.698C177.576 160.31 172.195 165.686 165.583 165.686Z" fill="white"/>
<path d="M65.9933 320.931C65.9933 353.346 91.5623 380.183 122.988 380.761C123.358 380.766 123.718 380.771 124.088 380.771C156.108 380.771 182.163 354.859 182.163 322.685V319.827C214.786 285.981 182.938 218.714 126.846 216.58C64.8973 214.316 33.5423 286.121 65.9923 319.846V320.931H65.9933ZM171.779 322.685C171.779 349.714 149.457 370.996 123.182 370.375C97.3753 369.903 76.3803 347.722 76.3803 320.931V298.775C76.3803 288.136 85.0313 279.484 95.6713 279.484H152.484C163.123 279.484 171.78 288.135 171.78 298.775V322.685H171.779ZM126.452 226.956C169.815 228.611 193.308 274.198 182.164 301.242V298.775C182.164 282.41 168.847 269.098 152.482 269.098H95.6703C79.3053 269.098 65.9933 282.41 65.9933 298.775V300.854C53.9083 270.794 81.6773 225.256 126.452 226.956Z" fill="white"/>
<path d="M143.771 384.884H103.749C57.406 384.884 23.506 418.197 8.97802 457.149C0.159019 480.788 18.349 505.26 42.884 505.26H205.264C229.812 505.26 247.997 480.771 239.165 457.139C224.187 417.029 189.412 384.884 143.771 384.884ZM205.265 494.873H42.885C25.382 494.873 12.495 477.443 18.705 460.779C32.162 424.712 62.801 395.269 103.749 395.269H143.771C184.833 395.269 215.922 424.613 229.439 460.769C235.653 477.423 222.775 494.873 205.265 494.873Z" fill="white"/>
<path d="M503.016 247.347C488.046 207.25 453.268 175.092 407.621 175.092H367.599C321.138 175.092 287.302 208.542 272.828 247.357C264.009 270.996 282.199 295.468 306.734 295.468H469.114C493.663 295.468 511.847 270.979 503.016 247.347ZM469.115 285.082H306.735C289.232 285.082 276.345 267.652 282.555 250.988C296.165 214.519 326.984 185.478 367.599 185.478H407.621C448.7 185.478 479.786 214.849 493.289 250.978C499.503 267.633 486.625 285.082 469.115 285.082Z" fill="white"/>
</svg>