<svg width="21" height="17" viewBox="0 0 21 17" fill="none" xmlns="http://www.w3.org/2000/svg">
<path d="M19.5 0H1.5C1.10218 0 0.720644 0.158035 0.43934 0.43934C0.158035 0.720644 0 1.10218 0 1.5V15.5C0 15.8978 0.158035 16.2794 0.43934 16.5607C0.720644 16.842 1.10218 17 1.5 17H19.5C19.8978 17 20.2794 16.842 20.5607 16.5607C20.842 16.2794 21 15.8978 21 15.5V1.5C21 1.10218 20.842 0.720644 20.5607 0.43934C20.2794 0.158035 19.8978 0 19.5 0ZM20 15.5C20 15.6326 19.9473 15.7598 19.8536 15.8536C19.7598 15.9473 19.6326 16 19.5 16H1.5C1.36739 16 1.24021 15.9473 1.14645 15.8536C1.05268 15.7598 1 15.6326 1 15.5V1.5C1 1.36739 1.05268 1.24021 1.14645 1.14645C1.24021 1.05268 1.36739 1 1.5 1H19.5C19.6326 1 19.7598 1.05268 19.8536 1.14645C19.9473 1.24021 20 1.36739 20 1.5V15.5Z" fill="white"/>
<path d="M3 2.75C2.86739 2.75 2.74021 2.80268 2.64645 2.89645C2.55268 2.99021 2.5 3.11739 2.5 3.25V4.75C2.5 4.88261 2.55268 5.00979 2.64645 5.10355C2.74021 5.19732 2.86739 5.25 3 5.25C3.13261 5.25 3.25979 5.19732 3.35355 5.10355C3.44732 5.00979 3.5 4.88261 3.5 4.75V3.25C3.5 3.11739 3.44732 2.99021 3.35355 2.89645C3.25979 2.80268 3.13261 2.75 3 2.75Z" fill="white"/>
<path d="M6.75 2.75C6.61739 2.75 6.49021 2.80268 6.39645 2.89645C6.30268 2.99021 6.25 3.11739 6.25 3.25V4.75C6.25 4.88261 6.30268 5.00979 6.39645 5.10355C6.49021 5.19732 6.61739 5.25 6.75 5.25C6.88261 5.25 7.00979 5.19732 7.10355 5.10355C7.19732 5.00979 7.25 4.88261 7.25 4.75V3.25C7.25 3.11739 7.19732 2.99021 7.10355 2.89645C7.00979 2.80268 6.88261 2.75 6.75 2.75Z" fill="white"/>
<path d="M10.5 2.75C10.3674 2.75 10.2402 2.80268 10.1464 2.89645C10.0527 2.99021 10 3.11739 10 3.25V4.75C10 4.88261 10.0527 5.00979 10.1464 5.10355C10.2402 5.19732 10.3674 5.25 10.5 5.25C10.6326 5.25 10.7598 5.19732 10.8536 5.10355C10.9473 5.00979 11 4.88261 11 4.75V3.25C11 3.11739 10.9473 2.99021 10.8536 2.89645C10.7598 2.80268 10.6326 2.75 10.5 2.75Z" fill="white"/>
<path d="M14.25 2.75C14.1174 2.75 13.9902 2.80268 13.8964 2.89645C13.8027 2.99021 13.75 3.11739 13.75 3.25V4.75C13.75 4.88261 13.8027 5.00979 13.8964 5.10355C13.9902 5.19732 14.1174 5.25 14.25 5.25C14.3826 5.25 14.5098 5.19732 14.6036 5.10355C14.6973 5.00979 14.75 4.88261 14.75 4.75V3.25C14.75 3.11739 14.6973 2.99021 14.6036 2.89645C14.5098 2.80268 14.3826 2.75 14.25 2.75Z" fill="white"/>
<path d="M18 2.75C17.8674 2.75 17.7402 2.80268 17.6464 2.89645C17.5527 2.99021 17.5 3.11739 17.5 3.25V4.75C17.5 4.88261 17.5527 5.00979 17.6464 5.10355C17.7402 5.19732 17.8674 5.25 18 5.25C18.1326 5.25 18.2598 5.19732 18.3536 5.10355C18.4473 5.00979 18.5 4.88261 18.5 4.75V3.25C18.5 3.11739 18.4473 2.99021 18.3536 2.89645C18.2598 2.80268 18.1326 2.75 18 2.75Z" fill="white"/>
<path d="M3 8.75C2.86739 8.75 2.74021 8.80268 2.64645 8.89645C2.55268 8.99021 2.5 9.11739 2.5 9.25V10.75C2.5 10.8826 2.55268 11.0098 2.64645 11.1036C2.74021 11.1973 2.86739 11.25 3 11.25C3.13261 11.25 3.25979 11.1973 3.35355 11.1036C3.44732 11.0098 3.5 10.8826 3.5 10.75V9.25C3.5 9.11739 3.44732 8.99021 3.35355 8.89645C3.25979 8.80268 3.13261 8.75 3 8.75Z" fill="white"/>
<path d="M6.75 8.75C6.61739 8.75 6.49021 8.80268 6.39645 8.89645C6.30268 8.99021 6.25 9.11739 6.25 9.25V10.75C6.25 10.8826 6.30268 11.0098 6.39645 11.1036C6.49021 11.1973 6.61739 11.25 6.75 11.25C6.88261 11.25 7.00979 11.1973 7.10355 11.1036C7.19732 11.0098 7.25 10.8826 7.25 10.75V9.25C7.25 9.11739 7.19732 8.99021 7.10355 8.89645C7.00979 8.80268 6.88261 8.75 6.75 8.75Z" fill="white"/>
<path d="M10.5 8.75C10.3674 8.75 10.2402 8.80268 10.1464 8.89645C10.0527 8.99021 10 9.11739 10 9.25V10.75C10 10.8826 10.0527 11.0098 10.1464 11.1036C10.2402 11.1973 10.3674 11.25 10.5 11.25C10.6326 11.25 10.7598 11.1973 10.8536 11.1036C10.9473 11.0098 11 10.8826 11 10.75V9.25C11 9.11739 10.9473 8.99021 10.8536 8.89645C10.7598 8.80268 10.6326 8.75 10.5 8.75Z" fill="white"/>
<path d="M14.25 8.75C14.1174 8.75 13.9902 8.80268 13.8964 8.89645C13.8027 8.99021 13.75 9.11739 13.75 9.25V10.75C13.75 10.8826 13.8027 11.0098 13.8964 11.1036C13.9902 11.1973 14.1174 11.25 14.25 11.25C14.3826 11.25 14.5098 11.1973 14.6036 11.1036C14.6973 11.0098 14.75 10.8826 14.75 10.75V9.25C14.75 9.11739 14.6973 8.99021 14.6036 8.89645C14.5098 8.80268 14.3826 8.75 14.25 8.75Z" fill="white"/>
<path d="M18 8.75C17.8674 8.75 17.7402 8.80268 17.6464 8.89645C17.5527 8.99021 17.5 9.11739 17.5 9.25V10.75C17.5 10.8826 17.5527 11.0098 17.6464 11.1036C17.7402 11.1973 17.8674 11.25 18 11.25C18.1326 11.25 18.2598 11.1973 18.3536 11.1036C18.4473 11.0098 18.5 10.8826 18.5 10.75V9.25C18.5 9.11739 18.4473 8.99021 18.3536 8.89645C18.2598 8.80268 18.1326 8.75 18 8.75Z" fill="white"/>
<path d="M5.09961 5.75C4.967 5.75 4.83982 5.80268 4.74606 5.89645C4.65229 5.99021 4.59961 6.11739 4.59961 6.25V7.75C4.59961 7.88261 4.65229 8.00979 4.74606 8.10355C4.83982 8.19732 4.967 8.25 5.09961 8.25C5.23222 8.25 5.35939 8.19732 5.45316 8.10355C5.54693 8.00979 5.59961 7.88261 5.59961 7.75V6.25C5.59961 6.11739 5.54693 5.99021 5.45316 5.89645C5.35939 5.80268 5.23222 5.75 5.09961 5.75Z" fill="white"/>
<path d="M8.69922 5.75C8.56661 5.75 8.43943 5.80268 8.34567 5.89645C8.2519 5.99021 8.19922 6.11739 8.19922 6.25V7.75C8.19922 7.88261 8.2519 8.00979 8.34567 8.10355C8.43943 8.19732 8.56661 8.25 8.69922 8.25C8.83183 8.25 8.959 8.19732 9.05277 8.10355C9.14654 8.00979 9.19922 7.88261 9.19922 7.75V6.25C9.19922 6.11739 9.14654 5.99021 9.05277 5.89645C8.959 5.80268 8.83183 5.75 8.69922 5.75Z" fill="white"/>
<path d="M12.3008 5.75C12.1682 5.75 12.041 5.80268 11.9472 5.89645C11.8535 5.99021 11.8008 6.11739 11.8008 6.25V7.75C11.8008 7.88261 11.8535 8.00979 11.9472 8.10355C12.041 8.19732 12.1682 8.25 12.3008 8.25C12.4334 8.25 12.5606 8.19732 12.6543 8.10355C12.7481 8.00979 12.8008 7.88261 12.8008 7.75V6.25C12.8008 6.11739 12.7481 5.99021 12.6543 5.89645C12.5606 5.80268 12.4334 5.75 12.3008 5.75Z" fill="white"/>
<path d="M15.9004 5.75C15.7678 5.75 15.6406 5.80268 15.5468 5.89645C15.4531 5.99021 15.4004 6.11739 15.4004 6.25V7.75C15.4004 7.88261 15.4531 8.00979 15.5468 8.10355C15.6406 8.19732 15.7678 8.25 15.9004 8.25C16.033 8.25 16.1602 8.19732 16.2539 8.10355C16.3477 8.00979 16.4004 7.88261 16.4004 7.75V6.25C16.4004 6.11739 16.3477 5.99021 16.2539 5.89645C16.1602 5.80268 16.033 5.75 15.9004 5.75Z" fill="white"/>
<path d="M5.09961 11.75C4.967 11.75 4.83982 11.8027 4.74606 11.8964C4.65229 11.9902 4.59961 12.1174 4.59961 12.25V13.75C4.59961 13.8826 4.65229 14.0098 4.74606 14.1036C4.83982 14.1973 4.967 14.25 5.09961 14.25C5.23222 14.25 5.35939 14.1973 5.45316 14.1036C5.54693 14.0098 5.59961 13.8826 5.59961 13.75V12.25C5.59961 12.1174 5.54693 11.9902 5.45316 11.8964C5.35939 11.8027 5.23222 11.75 5.09961 11.75Z" fill="white"/>
<path d="M8.69922 11.75C8.56661 11.75 8.43943 11.8027 8.34567 11.8964C8.2519 11.9902 8.19922 12.1174 8.19922 12.25V13.75C8.19922 13.8826 8.2519 14.0098 8.34567 14.1036C8.43943 14.1973 8.56661 14.25 8.69922 14.25C8.83183 14.25 8.959 14.1973 9.05277 14.1036C9.14654 14.0098 9.19922 13.8826 9.19922 13.75V12.25C9.19922 12.1174 9.14654 11.9902 9.05277 11.8964C8.959 11.8027 8.83183 11.75 8.69922 11.75Z" fill="white"/>
<path d="M12.3008 11.75C12.1682 11.75 12.041 11.8027 11.9472 11.8964C11.8535 11.9902 11.8008 12.1174 11.8008 12.25V13.75C11.8008 13.8826 11.8535 14.0098 11.9472 14.1036C12.041 14.1973 12.1682 14.25 12.3008 14.25C12.4334 14.25 12.5606 14.1973 12.6543 14.1036C12.7481 14.0098 12.8008 13.8826 12.8008 13.75V12.25C12.8008 12.1174 12.7481 11.9902 12.6543 11.8964C12.5606 11.8027 12.4334 11.75 12.3008 11.75Z" fill="white"/>
<path d="M15.9004 11.75C15.7678 11.75 15.6406 11.8027 15.5468 11.8964C15.4531 11.9902 15.4004 12.1174 15.4004 12.25V13.75C15.4004 13.8826 15.4531 14.0098 15.5468 14.1036C15.6406 14.1973 15.7678 14.25 15.9004 14.25C16.033 14.25 16.1602 14.1973 16.2539 14.1036C16.3477 14.0098 16.4004 13.8826 16.4004 13.75V12.25C16.4004 12.1174 16.3477 11.9902 16.2539 11.8964C16.1602 11.8027 16.033 11.75 15.9004 11.75Z" fill="white"/>
</svg>
