<svg width="21" height="21" viewBox="0 0 21 21" fill="none" xmlns="http://www.w3.org/2000/svg">
<path d="M8.30611 14.0015H1.59123C1.065 14.0015 0.63632 13.5737 0.63632 13.0466L0.637215 3.18242H11.7738C11.9501 3.18242 12.0924 3.04013 12.0924 2.86383C12.0924 2.68842 11.9501 2.54523 11.7738 2.54523L0.637215 2.54613V1.59121C0.637215 1.06498 1.065 0.636297 1.59213 0.636297H15.5926C16.1188 0.636297 16.5475 1.06408 16.5475 1.59121V8.59155C16.5475 8.76697 16.6898 8.91015 16.8661 8.91015C17.0424 8.91015 17.1847 8.76785 17.1847 8.59155L17.1838 1.59121C17.1838 0.71417 16.4696 0 15.5926 0L1.59121 0.000895165C0.71417 0.000895165 0 0.715065 0 1.59211V13.0474C0 13.9245 0.71417 14.6386 1.59121 14.6386H8.30517C8.48058 14.6386 8.62377 14.4963 8.62377 14.32C8.62377 14.1446 8.48147 14.0014 8.30517 14.0014L8.30611 14.0015Z" fill="white"/>
<path d="M14.002 3.1826C14.1783 3.1826 14.3206 3.0403 14.3206 2.86401C14.3206 2.6886 14.1783 2.54541 14.002 2.54541H13.0471C12.8708 2.54541 12.7285 2.68771 12.7285 2.86401C12.7285 3.03942 12.8708 3.1826 13.0471 3.1826H14.002Z" fill="white"/>
<path d="M15.2739 3.1826C15.4502 3.1826 15.5925 3.0403 15.5925 2.86401C15.5925 2.6886 15.4502 2.54541 15.2739 2.54541H14.9553C14.779 2.54541 14.6367 2.68771 14.6367 2.86401C14.6367 3.03942 14.779 3.1826 14.9553 3.1826H15.2739Z" fill="white"/>
<path d="M1.91039 1.27344C1.73498 1.27344 1.5918 1.41573 1.5918 1.59203C1.5918 1.76744 1.73409 1.91063 1.91039 1.91063H2.22899C2.4044 1.91063 2.54758 1.76833 2.54758 1.59203C2.54758 1.41662 2.40529 1.27344 2.22899 1.27344H1.91039Z" fill="white"/>
<path d="M3.50024 1.27344C3.32483 1.27344 3.18164 1.41573 3.18164 1.59203C3.18164 1.76744 3.32394 1.91063 3.50024 1.91063H3.81883C3.99424 1.91063 4.13743 1.76833 4.13743 1.59203C4.13743 1.41662 3.99513 1.27344 3.81883 1.27344H3.50024Z" fill="white"/>
<path d="M5.09203 1.27344C4.91662 1.27344 4.77344 1.41573 4.77344 1.59203C4.77344 1.76744 4.91573 1.91063 5.09203 1.91063H5.41063C5.58604 1.91063 5.72922 1.76833 5.72922 1.59203C5.72922 1.41662 5.58693 1.27344 5.41063 1.27344H5.09203Z" fill="white"/>
<path d="M3.18303 5.09227H14.0021C14.5284 5.09227 14.957 5.52006 14.957 6.04718V6.71212C14.957 6.88753 15.0993 7.03071 15.2756 7.03071C15.4519 7.03071 15.5942 6.88842 15.5942 6.71212V6.04718C15.5942 5.17014 14.8801 4.45597 14.003 4.45597L3.18301 4.45508C2.30597 4.45508 1.5918 5.16925 1.5918 6.04629V7.9552C1.5918 8.83225 2.30597 9.54642 3.18301 9.54642H11.5168C11.6931 9.54642 11.8353 9.40412 11.8353 9.22782C11.8353 9.05241 11.6931 8.90922 11.5168 8.90922L3.18301 8.91012C2.65677 8.91012 2.22809 8.48233 2.22809 7.9552V6.04629C2.22809 5.52006 2.65588 5.09138 3.18301 5.09138L3.18303 5.09227Z" fill="white"/>
<path d="M12.7066 17.2075C12.1061 16.607 11.7749 15.8078 11.7749 14.9567C11.7749 13.8765 12.3155 12.8795 13.2212 12.2897C13.3116 12.2306 13.3653 12.1304 13.3653 12.023V9.55642C13.3653 9.4535 13.3151 9.35596 13.231 9.29689C13.1469 9.23783 13.0386 9.22261 12.9411 9.25662C10.5302 10.1086 8.91016 12.3988 8.91016 14.9566C8.91016 16.5684 9.53841 18.0871 10.6795 19.2317C10.7394 19.2916 10.82 19.3256 10.905 19.3256C10.9891 19.3256 11.0706 19.2916 11.1296 19.2326L12.7047 17.6575C12.8291 17.5331 12.8291 17.3317 12.7047 17.2073L12.7066 17.2075ZM10.9131 18.5508C10.0307 17.5574 9.54742 16.2929 9.54742 14.9566C9.54742 12.8221 10.8093 10.8945 12.7299 10.0271V11.8546C12.6467 11.9146 12.5706 11.9817 12.4928 12.047C12.4883 12.0426 12.4865 12.0354 12.482 12.0309L11.8072 11.3562C11.6828 11.2318 11.4815 11.2318 11.3571 11.3562C11.2327 11.4805 11.2327 11.6819 11.3571 11.8063L12.0319 12.4811C12.0355 12.4847 12.0399 12.4856 12.0435 12.4882C11.5325 13.0896 11.2229 13.8396 11.1575 14.6415C11.1512 14.6415 11.1459 14.6379 11.1387 14.6379H10.1838C10.0084 14.6379 9.86521 14.7802 9.86521 14.9565C9.86521 15.1319 10.0075 15.2751 10.1838 15.2751H11.1387C11.1432 15.2751 11.1477 15.2724 11.1521 15.2724C11.2166 16.068 11.5244 16.8144 12.0408 17.423L10.9131 18.5508Z" fill="white"/>
<path d="M16.9711 9.25635C16.8735 9.22234 16.7652 9.23666 16.6811 9.29662C16.597 9.35658 16.5469 9.45324 16.5469 9.55615V12.0227C16.5469 12.1301 16.6015 12.2303 16.691 12.2894C17.5966 12.8792 18.1372 13.8762 18.1372 14.9564C18.1372 15.8066 17.807 16.6067 17.2056 17.2072C17.0812 17.3316 17.0812 17.533 17.2056 17.6574L18.7807 19.2325C18.8406 19.2924 18.9212 19.3256 19.0053 19.3256C19.0894 19.3256 19.1709 19.2915 19.2299 19.2316C20.371 18.0869 20.9992 16.5682 20.9992 14.9565C20.9992 12.3987 19.3794 10.1086 16.9684 9.25652L16.9711 9.25635ZM18.9999 18.5503L17.8723 17.4226C18.3887 16.8141 18.6956 16.0677 18.761 15.2721C18.7654 15.2721 18.7699 15.2748 18.7744 15.2748H19.7293C19.9056 15.2748 20.0479 15.1325 20.0479 14.9562C20.0479 14.7808 19.9056 14.6376 19.7293 14.6376H18.7744C18.7681 14.6376 18.7619 14.6412 18.7556 14.6412C18.6903 13.8402 18.3806 13.0902 17.8696 12.4879C17.8732 12.4843 17.8777 12.4835 17.8812 12.4808L18.556 11.806C18.6804 11.6816 18.6804 11.4802 18.556 11.3558C18.4316 11.2314 18.2303 11.2314 18.1059 11.3558L17.4311 12.0306C17.4266 12.0351 17.4248 12.0414 17.4203 12.0467C17.3425 11.9814 17.2664 11.9143 17.1832 11.8543V10.0268C19.1037 10.8949 20.3657 12.8217 20.3657 14.9563C20.3657 16.2924 19.8833 17.5571 19 18.5505L18.9999 18.5503Z" fill="white"/>
<path d="M14.9562 16.8654C15.6578 16.8654 16.2288 16.2944 16.2288 15.5928V8.59244C16.2288 7.8908 15.6578 7.31982 14.9562 7.31982C14.2546 7.31982 13.6836 7.8908 13.6836 8.59244V15.5928C13.6836 16.2944 14.2546 16.8654 14.9562 16.8654ZM14.3199 8.5926C14.3199 8.24179 14.6054 7.95631 14.9562 7.95631C15.307 7.95631 15.5925 8.24179 15.5925 8.5926V15.5929C15.5925 15.9438 15.307 16.2292 14.9562 16.2292C14.6054 16.2292 14.3199 15.9438 14.3199 15.5929V8.5926Z" fill="white"/>
<path d="M16.9923 18.2025C16.8133 17.9635 16.5278 17.8203 16.2289 17.8203H13.6838C13.3848 17.8203 13.0993 17.9635 12.9204 18.2025L11.9655 19.4751C11.7471 19.7659 11.7122 20.149 11.8751 20.4747C12.0379 20.8005 12.3655 21.0028 12.7289 21.0028H17.1838C17.5481 21.0028 17.8747 20.8005 18.0376 20.4747C18.2005 20.149 18.1656 19.7659 17.9472 19.4751L16.9932 18.2025H16.9923ZM17.4684 20.1901C17.4138 20.3002 17.3064 20.3664 17.1838 20.3664H12.7288C12.6053 20.3664 12.4988 20.3011 12.4442 20.1901C12.3896 20.0801 12.4004 19.9557 12.4746 19.8572L13.4296 18.5846C13.4886 18.505 13.5844 18.4575 13.6837 18.4575H16.2289C16.3282 18.4575 16.424 18.505 16.483 18.5846L17.438 19.8572C17.5122 19.9557 17.523 20.0801 17.4684 20.1901Z" fill="white"/>
</svg>
