<svg width="21" height="20" viewBox="0 0 21 20" fill="none" xmlns="http://www.w3.org/2000/svg">
<path d="M20.8683 6.32742C20.8466 6.22204 20.7582 6.1435 20.651 6.13447L19.7842 6.06131C19.6748 5.69168 19.526 5.33325 19.3404 4.99191L19.9018 4.32735C19.9713 4.24508 19.9783 4.12687 19.9189 4.03701C19.4303 3.29743 18.8073 2.67416 18.0671 2.1845C17.9772 2.12503 17.8589 2.13205 17.7765 2.20156L17.1121 2.7634C16.9717 2.68697 16.828 2.61713 16.6819 2.55332V0.242627C16.6819 0.108637 16.5732 0 16.4392 0H5.44702C5.44567 0 5.44442 0.000377708 5.44307 0.000399842C5.428 0.000640565 5.41302 0.00190667 5.39832 0.00491286C5.39792 0.00499428 5.39755 0.00514979 5.39715 0.0052349C5.38349 0.00810039 5.37021 0.0124468 5.3572 0.0176372C5.35363 0.0190589 5.35022 0.0206508 5.34674 0.0222354C5.33657 0.0268631 5.32676 0.0322054 5.31723 0.0382585C5.31441 0.040054 5.31152 0.0416755 5.30878 0.0435785C5.29705 0.051727 5.28574 0.0606197 5.27539 0.0709635L3.60058 1.74574C3.59017 1.75616 3.58124 1.76755 3.57305 1.77938C3.57132 1.78187 3.56985 1.7845 3.56822 1.78706C3.56196 1.79686 3.55646 1.80697 3.55172 1.81746C3.55023 1.82073 3.54873 1.82394 3.54739 1.82729C3.54205 1.84065 3.53755 1.85428 3.53466 1.86832C3.53467 1.86825 3.53465 1.86839 3.53466 1.86832C3.5316 1.88318 3.53027 1.89852 3.53004 1.91374C3.53002 1.91498 3.52967 1.91613 3.52967 1.91738V5.11882H1.17864C0.52877 5.11882 6.78933e-05 5.65161 6.78933e-05 6.30648V17.6912C-0.00325296 18.0261 0.115332 18.353 0.337974 18.6088C0.599526 18.9092 0.977978 19.0815 1.3763 19.0815H16.9772C17.73 19.0815 18.3677 18.5427 18.4936 17.8005L19.7979 10.1041C19.8343 9.88883 19.797 9.67082 19.6957 9.48222C19.727 9.39375 19.7569 9.30418 19.784 9.21279L20.6509 9.14011C20.7581 9.13113 20.8466 9.05256 20.8683 8.94715C20.9557 8.52146 21 8.08078 21 7.63729C21 7.19379 20.9557 6.75312 20.8683 6.32742ZM16.1966 2.36809C16.1453 2.35128 16.0939 2.33503 16.0421 2.31973L15.9689 1.45176C15.9598 1.34434 15.881 1.25575 15.7753 1.23434C14.9167 1.06037 14.0132 1.06051 13.1571 1.23502C13.0516 1.25655 12.9729 1.34505 12.9639 1.45235L12.8907 2.31976C12.5199 2.42949 12.1614 2.57817 11.8212 2.76343L11.1561 2.2015C11.0738 2.13199 10.9555 2.12503 10.8657 2.1845C10.125 2.67443 9.50216 3.29776 9.01433 4.03713C8.95507 4.12699 8.96206 4.24514 9.03151 4.32735L9.59267 4.99158C9.54514 5.07878 9.49994 5.1676 9.45768 5.2569C9.33429 5.51537 9.23081 5.78525 9.14915 6.06131L8.28174 6.13447C8.17456 6.1435 8.08609 6.22207 8.06447 6.32745C8.02845 6.50297 8.00027 6.68002 7.97937 6.85621H4.01493V2.15994H5.44696C5.58095 2.15994 5.68959 2.05131 5.68959 1.91732V0.485253H16.1966V2.36809ZM5.20434 0.828283V1.67469H4.3579L5.20434 0.828283ZM1.17864 5.60407H3.52967V6.85621H2.62696C1.981 6.85621 1.42683 7.33871 1.33792 7.97851L0.485321 14.1139V6.30648C0.485321 5.91918 0.796334 5.60407 1.17864 5.60407ZM19.3194 10.023L18.0151 17.7194C17.929 18.2275 17.4925 18.5962 16.9772 18.5962H1.3763C1.1184 18.5962 0.87331 18.4847 0.703957 18.2901C0.556921 18.1213 0.479919 17.9045 0.485321 17.6831V17.6764C0.486324 17.645 0.488916 17.6135 0.493288 17.582L1.81855 8.04533C1.87432 7.64407 2.22185 7.34147 2.62696 7.34147H8.54131C8.71208 7.34147 8.8743 7.42368 8.9753 7.56138L10.057 9.03651C10.2491 9.29835 10.5576 9.45467 10.8823 9.45467H18.8393C18.983 9.45467 19.1185 9.51761 19.2113 9.62737C19.304 9.73714 19.3434 9.88137 19.3194 10.023ZM11.4496 7.63729C11.4496 6.84582 11.7541 6.09774 12.3069 5.53083C12.8795 4.94363 13.6465 4.62024 14.4667 4.62024C15.2871 4.62024 16.0538 4.9436 16.6259 5.53095C17.1787 6.09718 17.4831 6.84523 17.4831 7.63729C17.4831 8.10067 17.3754 8.55792 17.1724 8.96942H11.7604C11.5574 8.55791 11.4496 8.10064 11.4496 7.63729ZM20.4265 8.67197L19.5755 8.74332C19.4732 8.75188 19.3874 8.82397 19.3612 8.92328C19.3461 8.98056 19.3287 9.03673 19.3117 9.09312C19.1689 9.01353 19.0071 8.96942 18.8393 8.96942H17.7053C17.8779 8.54933 17.9684 8.09563 17.9684 7.63729C17.9684 6.71781 17.6149 5.84937 16.9733 5.19215C16.3093 4.51042 15.4191 4.13499 14.4667 4.13499C13.5146 4.13499 12.6241 4.51039 11.9595 5.19204C11.3178 5.85008 10.9644 6.71849 10.9644 7.63729C10.9644 8.09563 11.0548 8.54932 11.2275 8.96942H10.8823C10.7115 8.96942 10.5493 8.8872 10.4483 8.74954L9.3666 7.27444C9.17456 7.01256 8.86604 6.85621 8.54131 6.85621H8.46798C8.47886 6.77171 8.49155 6.68705 8.50621 6.60251L9.35795 6.53066C9.46037 6.52201 9.54623 6.44977 9.57227 6.35035C9.65194 6.04603 9.76072 5.74849 9.89595 5.4652C9.95697 5.33627 10.0243 5.20916 10.0961 5.0874C10.1485 4.99857 10.139 4.88635 10.0724 4.80757L9.52115 4.15498C9.9219 3.58478 10.4128 3.09358 10.9839 2.69128L11.637 3.24306C11.7155 3.3094 11.8274 3.31909 11.9162 3.26705C12.312 3.0352 12.7371 2.85883 13.1798 2.74288C13.2792 2.71681 13.3514 2.63095 13.36 2.52856L13.4319 1.67706C14.1118 1.55972 14.8191 1.55963 15.5009 1.67662L15.5727 2.52853C15.5814 2.63098 15.6536 2.71687 15.7531 2.74288C16.1959 2.85874 16.6212 3.03511 17.0172 3.26705C17.106 3.31909 17.2179 3.3094 17.2965 3.24297L17.9489 2.69131C18.5197 3.09346 19.0108 3.58469 19.4121 4.15507L18.8609 4.80757C18.7946 4.88609 18.7849 4.99786 18.8368 5.08657C19.0692 5.48439 19.2457 5.90961 19.3611 6.35038C19.3871 6.44977 19.473 6.52201 19.5754 6.53066L20.4265 6.60248C20.4851 6.94068 20.5147 7.28792 20.5147 7.63729C20.5147 7.9866 20.4851 8.33383 20.4265 8.67197Z" fill="white"/>
</svg>
