<svg width="21" height="21" viewBox="0 0 21 21" fill="none" xmlns="http://www.w3.org/2000/svg">
<path d="M0.874346 18.4887V17.0051C0.874346 16.8177 1.02641 16.6656 1.21384 16.6656H1.67712L3.34808 13.0133C3.41351 12.8701 3.46125 12.7278 3.49307 12.581C3.52402 12.4386 3.53905 12.2892 3.53905 12.1257V9.74466C3.53905 9.55723 3.69112 9.40516 3.87855 9.40516C4.06598 9.40516 4.21804 9.55723 4.21804 9.74466V12.1257C4.21804 12.3343 4.19771 12.5306 4.15616 12.7242C4.1146 12.9134 4.05095 13.1 3.96254 13.2944L2.42065 16.6657H13.0141L11.4722 13.2944C11.3838 13.1008 11.3193 12.9134 11.2786 12.7242C11.2362 12.5315 11.2167 12.3352 11.2167 12.1257V5.7954H4.21899V7.8368C4.21899 8.02423 4.06692 8.1763 3.87949 8.1763C3.69206 8.1763 3.54 8.02423 3.54 7.8368V5.7954H2.99096C2.59665 5.7954 2.23771 5.63361 1.97688 5.37456C1.7152 5.11288 1.55428 4.75303 1.55428 4.3596V0.339497C1.55428 0.152068 1.70634 0 1.89377 0H4.32231C4.50974 0 4.66181 0.152068 4.66181 0.339497V1.4358H6.09761V0.339497C6.09761 0.152068 6.24968 0 6.43711 0H8.99669C9.18412 0 9.33619 0.152068 9.33619 0.339497V1.4358H10.772V0.339497C10.772 0.152068 10.9241 0 11.1115 0H13.54C13.7275 0 13.8795 0.152068 13.8795 0.339497V4.3596C13.8795 4.75391 13.7177 5.11285 13.4587 5.37368C13.197 5.63536 12.8372 5.79628 12.4437 5.79628H11.8947V12.1266C11.8947 12.2892 11.9097 12.4386 11.9407 12.5819C11.9725 12.7286 12.0211 12.8701 12.0865 13.0142L13.7575 16.6665H14.2208C14.4082 16.6665 14.5603 16.8186 14.5603 17.006V18.4895H15.0943C15.2817 18.4895 15.4338 18.6416 15.4338 18.829V20.1066C15.4338 20.294 15.2817 20.4461 15.0943 20.4461H0.339497C0.152068 20.4461 0 20.294 0 20.1066V18.829C0 18.6416 0.152068 18.4895 0.339497 18.4895H0.873504L0.874346 18.4887ZM1.55334 17.3446V18.4887H10.139C10.3264 18.4887 10.4785 18.6407 10.4785 18.8282C10.4785 19.0156 10.3264 19.1677 10.139 19.1677H0.679022V19.7662H14.7548V19.1677H12.0458C11.8584 19.1677 11.7064 19.0156 11.7064 18.8282C11.7064 18.6407 11.8584 18.4887 12.0458 18.4887H13.8804V17.3446H1.55232H1.55334ZM4.21794 8.8237C4.21794 9.01112 4.06587 9.16319 3.87845 9.16319C3.69101 9.16319 3.53895 9.01112 3.53895 8.8237V8.75915C3.53895 8.57172 3.69101 8.41966 3.87845 8.41966C4.06587 8.41966 4.21794 8.57172 4.21794 8.75915V8.8237ZM3.86518 5.11661C6.70496 5.05737 9.59409 5.11661 12.4427 5.11661C12.6513 5.11661 12.8414 5.03174 12.9785 4.8947C13.1155 4.75766 13.2004 4.56846 13.2004 4.35893V0.678323H11.4507V1.77463C11.4507 1.96206 11.2987 2.11412 11.1112 2.11412H8.99643C8.809 2.11412 8.65693 1.96206 8.65693 1.77463V0.678323H6.77643V1.77463C6.77643 1.96206 6.62437 2.11412 6.43694 2.11412H4.32214C4.13471 2.11412 3.98264 1.96206 3.98264 1.77463V0.678323H2.23299V4.35893C2.23299 4.56758 2.31786 4.75766 2.45401 4.8947C2.59105 5.03174 2.78113 5.11661 2.98978 5.11661H3.86518ZM11.1245 18.4878C11.312 18.4878 11.464 18.6399 11.464 18.8273C11.464 19.0148 11.312 19.1668 11.1245 19.1668H11.06C10.8726 19.1668 10.7205 19.0148 10.7205 18.8273C10.7205 18.6399 10.8726 18.4878 11.06 18.4878H11.1245ZM13.5363 12.636C13.3737 12.728 13.1659 12.6696 13.0748 12.5061C12.9829 12.3434 13.0412 12.1356 13.2048 12.0445C14.6141 11.2533 15.7732 10.1305 16.6034 8.80348C17.2983 7.69215 17.7633 6.43582 17.9508 5.11156L17.1745 5.72956C17.0286 5.84538 16.8147 5.8215 16.6988 5.67563C16.583 5.52975 16.6069 5.3158 16.7528 5.19997L18.1558 4.08334C18.3026 3.96664 18.5166 3.99228 18.6315 4.13727L19.7481 5.54034C19.864 5.68622 19.8401 5.90017 19.6942 6.016C19.5483 6.13182 19.3344 6.10795 19.2185 5.96207L18.62 5.21058C18.4176 6.62869 17.9207 7.97341 17.1772 9.16256C16.2877 10.586 15.0447 11.7891 13.5346 12.6379L13.5363 12.636ZM19.7048 8.97941C20.0619 8.97941 20.3864 9.1244 20.6207 9.3587C20.855 9.593 21 9.91656 21 10.2746C21 10.6309 20.855 10.9554 20.6207 11.1897C20.3864 11.4249 20.0629 11.5708 19.7048 11.5708C19.3476 11.5708 19.0231 11.4258 18.7888 11.1915C18.5545 10.9572 18.4095 10.6336 18.4095 10.2755C18.4095 9.91835 18.5545 9.59388 18.7888 9.35958C19.0231 9.12528 19.3467 8.98029 19.7048 8.98029V8.97941ZM20.1406 9.83877C20.0292 9.72737 19.8754 9.65841 19.7048 9.65841C19.535 9.65841 19.3803 9.72737 19.2689 9.83877C19.1575 9.95017 19.0885 10.104 19.0885 10.2746C19.0885 10.4453 19.1575 10.5991 19.2689 10.7105C19.3803 10.8219 19.5341 10.8909 19.7048 10.8909C19.8745 10.8909 20.0292 10.8219 20.1406 10.7105C20.252 10.6 20.321 10.4453 20.321 10.2746C20.321 10.1049 20.252 9.95017 20.1406 9.83877ZM14.1367 7.06802C14.4939 7.06802 14.8184 7.21301 15.0527 7.44731C15.287 7.6816 15.432 8.00517 15.432 8.36325C15.432 8.72042 15.287 9.04489 15.0527 9.27919C14.8184 9.51349 14.4948 9.65847 14.1367 9.65847C13.7796 9.65847 13.4551 9.51348 13.2208 9.27919C12.9865 9.04489 12.8415 8.72133 12.8415 8.36325C12.8415 8.00607 12.9865 7.6816 13.2208 7.44731C13.4551 7.21301 13.7787 7.06802 14.1367 7.06802ZM14.5726 7.92738C14.4612 7.81598 14.3074 7.74702 14.1367 7.74702C13.967 7.74702 13.8123 7.81598 13.7009 7.92738C13.5895 8.03878 13.5205 8.19262 13.5205 8.36325C13.5205 8.533 13.5895 8.68772 13.7009 8.79912C13.8123 8.91051 13.9661 8.97948 14.1367 8.97948C14.3065 8.97948 14.4612 8.91051 14.5726 8.79912C14.684 8.68772 14.753 8.53388 14.753 8.36325C14.753 8.1935 14.684 8.03878 14.5726 7.92738ZM15.6291 12.5787C15.4974 12.4461 15.4983 12.2322 15.6309 12.1004C15.7635 11.9687 15.9775 11.9696 16.1092 12.1022L16.5079 12.5009L16.9067 12.1022C17.0384 11.9696 17.2532 11.9687 17.385 12.1004C17.5176 12.2321 17.5185 12.447 17.3867 12.5787L16.9871 12.9783L17.3867 13.3779C17.5185 13.5106 17.5176 13.7245 17.385 13.8562C17.2523 13.988 17.0384 13.9871 16.9067 13.8545L16.5088 13.4558L16.111 13.8545C15.9792 13.9871 15.7644 13.988 15.6327 13.8562C15.5 13.7245 15.4992 13.5097 15.6309 13.3779L16.0305 12.9783L15.6309 12.5787H15.6291ZM17.4893 2.06765C17.3567 1.93504 17.3567 1.72019 17.4893 1.58758C17.6219 1.45496 17.8368 1.45496 17.9694 1.58758L18.3681 1.98631L18.7668 1.58758C18.8994 1.45496 19.1143 1.45496 19.2469 1.58758C19.3795 1.7202 19.3795 1.93504 19.2469 2.06765L18.8482 2.46638L19.2469 2.86511C19.3795 2.99773 19.3795 3.21257 19.2469 3.34518C19.1143 3.4778 18.8994 3.4778 18.7668 3.34518L18.3681 2.94645L17.9703 3.34518C17.8376 3.4778 17.6228 3.4778 17.4902 3.34518C17.3576 3.21256 17.3576 2.99772 17.4902 2.86511L17.888 2.46638L17.4893 2.06765Z" fill="white"/>
</svg>
